<svg width="100" height="100" viewBox="0 0 100 100" xmlns="http://www.w3.org/2000/svg">
  <path d="M10 10h10v10H10zM30 10h10v10H30zM50 10h10v10H50zM70 10h10v10H70zM20 20h10v10H20zM40 20h10v10H40zM60 20h10v10H60zM80 20h10v10H80zM10 30h10v10H10zM30 30h10v10H30zM50 30h10v10H50zM70 30h10v10H70zM20 40h10v10H20zM40 40h10v10H40zM60 40h10v10H60zM80 40h10v10H80zM10 50h10v10H10zM30 50h10v10H30zM50 50h10v10H50zM70 50h10v10H70zM20 60h10v10H20zM40 60h10v10H40zM60 60h10v10H60zM80 60h10v10H80zM10 70h10v10H10zM30 70h10v10H30zM50 70h10v10H50zM70 70h10v10H70zM20 80h10v10H20zM40 80h10v10H40zM60 80h10v10H60zM80 80h10v10H80z" fill="#333" fill-opacity="0.05"/>
</svg>